G04*
G04 #@! TF.GenerationSoftware,Altium Limited,Altium Designer,25.7.1 (20)*
G04*
G04 Layer_Physical_Order=1*
G04 Layer_Color=255*
%FSAX44Y44*%
%MOMM*%
G71*
G04*
G04 #@! TF.SameCoordinates,52E17D5F-6918-4E17-A2BF-2B78E3F0484B*
G04*
G04*
G04 #@! TF.FilePolarity,Positive*
G04*
G01*
G75*
%ADD10C,0.3000*%
%ADD11R,0.9000X0.7500*%
%ADD12R,1.0000X0.7000*%
%ADD13R,0.7500X0.9000*%
%ADD14C,0.5000*%
%ADD15C,2.5000*%
%ADD16C,1.6000*%
G04:AMPARAMS|DCode=17|XSize=1.6mm|YSize=1.6mm|CornerRadius=0.4mm|HoleSize=0mm|Usage=FLASHONLY|Rotation=270.000|XOffset=0mm|YOffset=0mm|HoleType=Round|Shape=RoundedRectangle|*
%AMROUNDEDRECTD17*
21,1,1.6000,0.8000,0,0,270.0*
21,1,0.8000,1.6000,0,0,270.0*
1,1,0.8000,-0.4000,-0.4000*
1,1,0.8000,-0.4000,0.4000*
1,1,0.8000,0.4000,0.4000*
1,1,0.8000,0.4000,-0.4000*
%
%ADD17ROUNDEDRECTD17*%
%ADD18C,1.4000*%
G36*
X00006198Y00135546D02*
X00008246Y00133498D01*
X00009281Y00132900D01*
X00008478Y00129900D01*
X00007500D01*
Y00116400D01*
X00022500D01*
Y00129900D01*
X00021523D01*
X00020719Y00132900D01*
X00021754Y00133498D01*
X00023500Y00135244D01*
X00024790Y00135060D01*
X00026500Y00134219D01*
Y00124000D01*
X00026000D01*
Y00111000D01*
X00039412D01*
X00042000Y00111000D01*
X00042412Y00108171D01*
Y00107829D01*
X00042114Y00105781D01*
X00039125Y00105063D01*
X00039000Y00105088D01*
X00038557Y00105000D01*
X00026000D01*
Y00092000D01*
X00042000D01*
Y00093412D01*
X00045243D01*
X00046998Y00093761D01*
X00048487Y00094756D01*
X00049000Y00095269D01*
X00049375Y00095113D01*
X00051500Y00093000D01*
Y00079500D01*
X00066500D01*
Y00085807D01*
X00066588Y00086250D01*
X00066500Y00086693D01*
Y00092000D01*
X00068000D01*
Y00103412D01*
X00071000D01*
X00072756Y00103761D01*
X00073941Y00104553D01*
X00075105Y00104262D01*
X00076941Y00103210D01*
Y00013059D01*
X00035000D01*
X00035000Y00013059D01*
X00033830Y00012826D01*
X00032837Y00012163D01*
X00032837Y00012163D01*
X00024656Y00003981D01*
X00023491Y00004208D01*
X00023470Y00004236D01*
X00022679Y00007422D01*
X00023802Y00008546D01*
X00025250Y00011054D01*
X00026000Y00013852D01*
Y00014002D01*
X00026884D01*
X00029030Y00014429D01*
X00030849Y00015645D01*
X00034728Y00019524D01*
X00036683Y00019000D01*
X00039316D01*
X00041860Y00019682D01*
X00044140Y00020998D01*
X00046002Y00022860D01*
X00047319Y00025140D01*
X00048000Y00027683D01*
Y00030317D01*
X00047319Y00032860D01*
X00046002Y00035140D01*
X00044140Y00037002D01*
X00041860Y00038319D01*
X00040271Y00038744D01*
X00039872Y00040607D01*
X00039994Y00041885D01*
X00041922Y00042998D01*
X00043784Y00044860D01*
X00045101Y00047140D01*
X00045782Y00049683D01*
Y00052316D01*
X00045101Y00054860D01*
X00043784Y00057140D01*
X00041922Y00059002D01*
X00039642Y00060318D01*
X00037099Y00061000D01*
X00034466D01*
X00031923Y00060318D01*
X00029642Y00059002D01*
X00027780Y00057140D01*
X00026464Y00054860D01*
X00025782Y00052316D01*
Y00050148D01*
X00024046Y00048412D01*
X00022844D01*
X00021754Y00049502D01*
X00019246Y00050950D01*
X00016448Y00051700D01*
X00013552D01*
X00010754Y00050950D01*
X00008246Y00049502D01*
X00006198Y00047454D01*
X00006059Y00047213D01*
X00003059Y00048017D01*
Y00058783D01*
X00006059Y00059587D01*
X00006198Y00059346D01*
X00008246Y00057298D01*
X00010754Y00055850D01*
X00013552Y00055100D01*
X00016448D01*
X00019246Y00055850D01*
X00021754Y00057298D01*
X00023802Y00059346D01*
X00025250Y00061854D01*
X00026000Y00064652D01*
Y00067548D01*
X00025250Y00070346D01*
X00023802Y00072854D01*
X00021754Y00074902D01*
X00019246Y00076350D01*
X00016448Y00077100D01*
X00013552D01*
X00010754Y00076350D01*
X00008246Y00074902D01*
X00006198Y00072854D01*
X00006059Y00072613D01*
X00003059Y00073417D01*
Y00134983D01*
X00006059Y00135787D01*
X00006198Y00135546D01*
D02*
G37*
G36*
X00076941Y00288733D02*
Y00154033D01*
X00075793Y00153196D01*
X00073941Y00152609D01*
X00072998Y00153239D01*
X00071243Y00153588D01*
X00059411D01*
X00059016Y00156588D01*
X00059246Y00156650D01*
X00061754Y00158098D01*
X00063802Y00160146D01*
X00065250Y00162654D01*
X00066000Y00165452D01*
Y00168348D01*
X00065250Y00171146D01*
X00063802Y00173654D01*
X00061754Y00175702D01*
X00059246Y00177150D01*
X00056448Y00177900D01*
X00053552D01*
X00050754Y00177150D01*
X00048246Y00175702D01*
X00046198Y00173654D01*
X00044750Y00171146D01*
X00044000Y00168348D01*
Y00165452D01*
X00041668Y00162562D01*
X00041012Y00162477D01*
X00037588Y00165900D01*
Y00273693D01*
X00040588Y00274290D01*
X00041264Y00272658D01*
X00042960Y00270119D01*
X00045119Y00267960D01*
X00047658Y00266264D01*
X00050479Y00265096D01*
X00053473Y00264500D01*
X00056527D01*
X00059521Y00265096D01*
X00062342Y00266264D01*
X00064881Y00267960D01*
X00067040Y00270119D01*
X00068736Y00272658D01*
X00069904Y00275479D01*
X00070500Y00278473D01*
Y00281527D01*
X00069904Y00284521D01*
X00068736Y00287342D01*
X00067040Y00289881D01*
X00064881Y00292040D01*
X00062342Y00293736D01*
X00059521Y00294904D01*
X00056527Y00295500D01*
X00053473D01*
X00050479Y00294904D01*
X00047658Y00293736D01*
X00045119Y00292040D01*
X00042960Y00289881D01*
X00041264Y00287342D01*
X00040096Y00284521D01*
X00039500Y00281527D01*
Y00280472D01*
X00036500Y00279562D01*
X00036244Y00279944D01*
X00025994Y00290195D01*
X00026060Y00290700D01*
Y00298700D01*
X00025820Y00300527D01*
X00025115Y00302230D01*
X00023992Y00303692D01*
X00023668Y00303941D01*
X00024686Y00306941D01*
X00058733D01*
X00076941Y00288733D01*
D02*
G37*
%LPC*%
G36*
X00059000Y00254160D02*
X00051000D01*
X00049173Y00253920D01*
X00047470Y00253214D01*
X00046008Y00252092D01*
X00044886Y00250630D01*
X00044180Y00248927D01*
X00043940Y00247100D01*
Y00239100D01*
X00044180Y00237273D01*
X00044886Y00235570D01*
X00046008Y00234108D01*
X00047470Y00232985D01*
X00049173Y00232280D01*
X00051000Y00232040D01*
X00059000D01*
X00060827Y00232280D01*
X00062530Y00232985D01*
X00063992Y00234108D01*
X00065114Y00235570D01*
X00065820Y00237273D01*
X00066060Y00239100D01*
Y00247100D01*
X00065820Y00248927D01*
X00065114Y00250630D01*
X00063992Y00252092D01*
X00062530Y00253214D01*
X00060827Y00253920D01*
X00059000Y00254160D01*
D02*
G37*
G36*
X00056448Y00203300D02*
X00053552D01*
X00050754Y00202550D01*
X00048246Y00201102D01*
X00046198Y00199054D01*
X00044750Y00196546D01*
X00044000Y00193748D01*
Y00190852D01*
X00044750Y00188054D01*
X00046198Y00185546D01*
X00048246Y00183498D01*
X00050754Y00182050D01*
X00053552Y00181300D01*
X00056448D01*
X00059246Y00182050D01*
X00061754Y00183498D01*
X00063802Y00185546D01*
X00065250Y00188054D01*
X00066000Y00190852D01*
Y00193748D01*
X00065250Y00196546D01*
X00063802Y00199054D01*
X00061754Y00201102D01*
X00059246Y00202550D01*
X00056448Y00203300D01*
D02*
G37*
%LPD*%
D10*
X00034892Y00130858D02*
G03*
X00034474Y00129569I00002571J-00001546D01*
G01*
X00060500Y00084750D02*
X00062000Y00086250D01*
X00073000Y00110000D02*
Y00147243D01*
X00071000Y00108000D02*
X00073000Y00110000D01*
X00048000Y00149000D02*
X00071243D01*
X00073000Y00147243D01*
X00063771Y00108000D02*
X00071000D01*
X00033000Y00164000D02*
X00048000Y00149000D01*
X00033000Y00164000D02*
Y00276700D01*
X00015000Y00142300D02*
X00015025Y00142275D01*
X00035975D01*
X00036000Y00142250D01*
Y00128319D02*
X00037000Y00127500D01*
X00035299Y00128894D02*
X00036000Y00128319D01*
X00034474Y00129569D02*
X00035299Y00128894D01*
X00034474Y00129569D02*
X00034474Y00129569D01*
X00034892Y00130858D02*
X00034892Y00130858D01*
X00036000Y00128319D02*
Y00129750D01*
Y00127250D02*
Y00128319D01*
X00034000Y00117500D02*
Y00127500D01*
X00015000Y00123150D02*
Y00142300D01*
X00060000Y00087250D02*
Y00098500D01*
X00058000Y00119500D02*
X00060000Y00117500D01*
X00058000Y00119500D02*
Y00133895D01*
X00049500Y00117500D02*
X00056000D01*
X00060000D01*
X00015000Y00294700D02*
X00033000Y00276700D01*
X00047000Y00099757D02*
Y00115000D01*
X00049500Y00117500D01*
X00039000Y00100500D02*
X00039500Y00100000D01*
X00034500Y00098000D02*
X00045243D01*
X00047000Y00099757D01*
D11*
X00015000Y00110650D02*
D03*
Y00123150D02*
D03*
X00059000Y00073750D02*
D03*
X00034000Y00129750D02*
D03*
Y00142250D02*
D03*
X00059000Y00086250D02*
D03*
D12*
X00034000Y00108000D02*
D03*
Y00098500D02*
D03*
X00060000Y00117500D02*
D03*
Y00108000D02*
D03*
X00034000Y00117500D02*
D03*
X00060000Y00098500D02*
D03*
D13*
X00056750Y00134000D02*
D03*
X00069250D02*
D03*
D14*
X00026369Y00042805D02*
X00034565Y00051000D01*
X00035782D01*
X00017105Y00042805D02*
X00026369D01*
X00015000Y00040700D02*
X00017105Y00042805D01*
X00022287Y00019610D02*
X00026884D01*
X00036274Y00029000D01*
X00038000D01*
X00015000Y00015300D02*
X00017977D01*
X00022287Y00019610D01*
D15*
X00067000Y00055000D02*
D03*
X00055000Y00280000D02*
D03*
D16*
Y00217700D02*
D03*
X00015000Y00167700D02*
D03*
Y00218500D02*
D03*
Y00269300D02*
D03*
Y00243900D02*
D03*
Y00193100D02*
D03*
Y00142300D02*
D03*
Y00066100D02*
D03*
Y00040700D02*
D03*
Y00015300D02*
D03*
X00055000Y00192300D02*
D03*
Y00166900D02*
D03*
D17*
X00015000Y00294700D02*
D03*
X00055000Y00243100D02*
D03*
D18*
X00035782Y00051000D02*
D03*
X00038000Y00029000D02*
D03*
M02*
