G04*
G04 #@! TF.GenerationSoftware,Altium Limited,Altium Designer,25.7.1 (20)*
G04*
G04 Layer_Physical_Order=4*
G04 Layer_Color=16711680*
%FSAX44Y44*%
%MOMM*%
G71*
G04*
G04 #@! TF.SameCoordinates,52E17D5F-6918-4E17-A2BF-2B78E3F0484B*
G04*
G04*
G04 #@! TF.FilePolarity,Positive*
G04*
G01*
G75*
%ADD14C,0.5000*%
%ADD15C,2.5000*%
%ADD16C,1.6000*%
G04:AMPARAMS|DCode=17|XSize=1.6mm|YSize=1.6mm|CornerRadius=0.4mm|HoleSize=0mm|Usage=FLASHONLY|Rotation=270.000|XOffset=0mm|YOffset=0mm|HoleType=Round|Shape=RoundedRectangle|*
%AMROUNDEDRECTD17*
21,1,1.6000,0.8000,0,0,270.0*
21,1,0.8000,1.6000,0,0,270.0*
1,1,0.8000,-0.4000,-0.4000*
1,1,0.8000,-0.4000,0.4000*
1,1,0.8000,0.4000,0.4000*
1,1,0.8000,0.4000,-0.4000*
%
%ADD17ROUNDEDRECTD17*%
%ADD18C,1.4000*%
D14*
X00048000Y00036565D02*
Y00156923D01*
X00057977Y00166900D01*
X00035782Y00051000D02*
Y00176782D01*
X00047190Y00188190D01*
X00052023Y00192300D02*
X00055000D01*
X00047913Y00188190D02*
X00052023Y00192300D01*
X00047190Y00188190D02*
X00047913D01*
X00040435Y00029000D02*
X00048000Y00036565D01*
X00038000Y00029000D02*
X00040435D01*
X00070827Y00058827D02*
Y00206873D01*
X00060000Y00217700D02*
X00070827Y00206873D01*
X00055000Y00243100D02*
Y00280000D01*
X00067000Y00055000D02*
X00070827Y00058827D01*
D15*
X00067000Y00055000D02*
D03*
X00055000Y00280000D02*
D03*
D16*
Y00217700D02*
D03*
X00015000Y00167700D02*
D03*
Y00218500D02*
D03*
Y00269300D02*
D03*
Y00243900D02*
D03*
Y00193100D02*
D03*
Y00142300D02*
D03*
Y00066100D02*
D03*
Y00040700D02*
D03*
Y00015300D02*
D03*
X00055000Y00192300D02*
D03*
Y00166900D02*
D03*
D17*
X00015000Y00294700D02*
D03*
X00055000Y00243100D02*
D03*
D18*
X00035782Y00051000D02*
D03*
X00038000Y00029000D02*
D03*
M02*
